<?xml version="1.0" encoding="UTF-8" standalone="no"?>
<!DOCTYPE svg PUBLIC "-//W3C//DTD SVG 1.1//EN"
 "http://www.w3.org/Graphics/SVG/1.1/DTD/svg11.dtd">
<!-- Generated by graphviz version 2.40.1 (20161225.0304)
 -->
<!-- Title: %0 Pages: 1 -->
<svg width="273pt" height="152pt"
 viewBox="0.00 0.00 273.00 151.80" xmlns="http://www.w3.org/2000/svg" xmlns:xlink="http://www.w3.org/1999/xlink">
<g id="graph0" class="graph" transform="scale(1 1) rotate(0) translate(4 147.8)">
<title>%0</title>
<polygon fill="#ffffff" stroke="transparent" points="-4,4 -4,-147.8 269,-147.8 269,4 -4,4"/>
<!-- 1&#45;&gt;2 -->
<g id="edge1" class="edge">
<title>1&#45;&gt;2</title>
<path fill="none" stroke="#000000" d="M78,-100.4279C78,-85.2375 78,-64.8919 78,-48.6622"/>
<polygon fill="#000000" stroke="#000000" points="79.7501,-48.3294 78,-43.3294 76.2501,-48.3294 79.7501,-48.3294"/>
</g>
<!-- 4&#45;&gt;3 -->
<g id="edge2" class="edge">
<title>4&#45;&gt;3</title>
<path fill="none" stroke="#000000" d="M156.3209,-71.9C162.1794,-71.9 167.9817,-71.9 173.571,-71.9"/>
<polygon fill="#000000" stroke="#000000" points="173.6397,-73.6501 178.6397,-71.9 173.6396,-70.1501 173.6397,-73.6501"/>
</g>
<!-- 1 -->
<g id="node1" class="node">
<title>1</title>
<polygon fill="#f0f8ff" stroke="#000000" stroke-width="2" points="130,-143.8 26,-143.8 26,-100.8 130,-100.8 130,-143.8"/>
<text text-anchor="middle" x="78" y="-132.2" font-family="Calibri" font-size="11.00" fill="#000000">Initial events</text>
<text text-anchor="middle" x="78" y="-119" font-family="Calibri" font-size="11.00" fill="#000000">N subjects = 2,679</text>
<text text-anchor="middle" x="78" y="-105.8" font-family="Calibri" font-size="11.00" fill="#000000">N records = 13,908</text>
</g>
<!-- 2 -->
<g id="node2" class="node">
<title>2</title>
<polygon fill="#f0f8ff" stroke="#000000" stroke-width="2" points="130,-43 26,-43 26,0 130,0 130,-43"/>
<text text-anchor="middle" x="78" y="-31.4" font-family="Calibri" font-size="11.00" fill="#000000">Final events</text>
<text text-anchor="middle" x="78" y="-18.2" font-family="Calibri" font-size="11.00" fill="#000000">N subjects = 2,679</text>
<text text-anchor="middle" x="78" y="-5" font-family="Calibri" font-size="11.00" fill="#000000">N records = 13,907</text>
</g>
<!-- 3 -->
<g id="node3" class="node">
<title>3</title>
<polygon fill="#c0c0c0" stroke="#000000" points="265,-86.4 179,-86.4 179,-57.4 265,-57.4 265,-86.4"/>
<text text-anchor="middle" x="222" y="-74.6" font-family="Calibri" font-size="9.00" fill="#000000">N subjects = 0</text>
<text text-anchor="middle" x="222" y="-63.8" font-family="Calibri" font-size="9.00" fill="#000000">N records = 1</text>
</g>
<!-- 4 -->
<g id="node4" class="node">
<title>4</title>
<polygon fill="#ffffff" stroke="#000000" points="156,-86.4 0,-86.4 0,-57.4 156,-57.4 156,-86.4"/>
<text text-anchor="middle" x="78" y="-74.9" font-family="Calibri" font-size="10.00" fill="#000000">join exposures separated by</text>
<text text-anchor="middle" x="78" y="-62.9" font-family="Calibri" font-size="10.00" fill="#000000">1 or less days</text>
</g>
</g>
</svg>

